<svg xmlns="http://www.w3.org/2000/svg" viewBox="0 0 64 64">
  <defs>
    <linearGradient id="mmg" x1="0" y1="0" x2="1" y2="1">
      <stop offset="0" stop-color="#ffb36b"/>
      <stop offset="1" stop-color="#f6851b"/>
    </linearGradient>
  </defs>
  <rect width="64" height="64" rx="16" fill="url(#mmg)"/>
  <!-- fox-like mark (stylized, recognizable) -->
  <path fill="#fff" opacity=".95" d="M12 22l10-7 8 6 2-3 2 3 8-6 10 7-6 9 3 16-17 7-17-7 3-16z"/>
  <path fill="#f6851b" opacity=".25" d="M32 18l2 3 8-6 10 7-6 9 3 16-17 7V18z"/>
  <path fill="#111827" opacity=".35" d="M24 33l8 5 8-5-8 11z"/>
  <path fill="#111827" opacity=".22" d="M18 27l6 4-2 4-6-7zm28 0l-6 4 2 4 6-7z"/>
</svg>

