<svg xmlns="http://www.w3.org/2000/svg" viewBox="0 0 64 64">
  <defs>
    <linearGradient id="pg" x1="0" y1="0" x2="1" y2="1">
      <stop offset="0" stop-color="#8b5cf6"/>
      <stop offset="1" stop-color="#a78bfa"/>
    </linearGradient>
  </defs>
  <rect width="64" height="64" rx="16" fill="url(#pg)"/>
  <path fill="#fff" opacity=".95" d="M18 44c1-14 10-24 22-24 8 0 12 4 12 10 0 9-9 14-18 14-5 0-10-1-16 0z"/>
  <path fill="#000" opacity=".14" d="M46 25c2 1 3 3 3 5 0 7-9 12-17 12-4 0-8-1-12-1 7-1 14-3 18-7 3-2 6-5 8-9z"/>
</svg>

