<svg xmlns="http://www.w3.org/2000/svg" viewBox="0 0 64 64">
  <defs>
    <linearGradient id="rg" x1="0" y1="0" x2="1" y2="1">
      <stop offset="0" stop-color="#7c86ff"/>
      <stop offset="1" stop-color="#b8beff"/>
    </linearGradient>
  </defs>
  <rect width="64" height="64" rx="16" fill="url(#rg)"/>
  <path fill="#fff" d="M20 38c0-9 6-16 14-16s14 7 14 16c0 4-3 8-7 10-2 1-4 2-7 2s-5-1-7-2c-4-2-7-6-7-10z" opacity=".95"/>
  <path fill="#000" opacity=".18" d="M30 34a2.5 2.5 0 1 0 0 5 2.5 2.5 0 0 0 0-5zm8 0a2.5 2.5 0 1 0 0 5 2.5 2.5 0 0 0 0-5z"/>
</svg>

